<svg id="SvgjsSvg1017" width="288" height="288" xmlns="http://www.w3.org/2000/svg" version="1.1" xmlns:xlink="http://www.w3.org/1999/xlink" xmlns:svgjs="http://svgjs.com/svgjs"><defs id="SvgjsDefs1018"></defs><g id="SvgjsG1019"><svg xmlns="http://www.w3.org/2000/svg" width="288" height="288" viewBox="-36 0 453 454"><path d="M332.863281 347.101562c23.417969-2.371093 40.863281-22.679687 39.675781-46.1875-1.1875-23.503906-20.589843-41.953124-44.125-41.953124-23.535156 0-42.9375 18.449218-44.125 41.953124-1.1875 23.507813 16.261719 43.816407 39.675782 46.1875-27.917969 2.339844-49.398438 25.667969-49.4375 53.683594v43.214844c0 5.523438 4.480468 10 10 10h87.773437c5.523438 0 10-4.476562 10-10v-43.210938c-.035156-28.019531-21.515625-51.347656-49.4375-53.6875zm-28.628906-43.957031c0-13.355469 10.824219-24.183593 24.179687-24.183593 13.355469 0 24.183594 10.824218 24.183594 24.179687s-10.828125 24.183594-24.183594 24.183594c-13.34375-.015625-24.160156-10.832031-24.179687-24.175781zm58.066406 130.855469h-67.769531v-33.210938c0-18.710937 15.171875-33.882812 33.882812-33.882812 18.714844 0 33.886719 15.171875 33.886719 33.882812zm0 0M58.835938 347.101562c23.414062-2.371093 40.859374-22.679687 39.675781-46.1875-1.1875-23.503906-20.59375-41.953124-44.125-41.953124-23.535157 0-42.941407 18.449218-44.125 41.953124-1.1875 23.507813 16.257812 43.816407 39.671875 46.1875-27.917969 2.34375-49.398438 25.671876-49.433594 53.6875v43.210938c0 5.523438 4.476562 10 10 10h87.769531c5.523438 0 10-4.476562 10-10v-43.210938c-.03125-28.019531-21.511719-51.347656-49.433593-53.6875zm-28.632813-43.957031c0-13.355469 10.828125-24.183593 24.183594-24.183593s24.179687 10.828124 24.179687 24.179687c0 13.355469-10.828125 24.183594-24.179687 24.183594-13.347657-.015625-24.164063-10.832031-24.183594-24.175781zm58.066406 130.855469h-67.769531v-33.210938c0-18.710937 15.171875-33.882812 33.886719-33.882812 18.714843 0 33.886719 15.171875 33.886719 33.882812v33.210938zm0 0M195.851562 347.101562c23.414063-2.371093 40.859376-22.679687 39.671876-46.1875-1.183594-23.503906-20.589844-41.953124-44.125-41.953124-23.53125 0-42.9375 18.449218-44.125 41.953124-1.183594 23.507813 16.261718 43.816407 39.675781 46.1875-27.917969 2.339844-49.398438 25.667969-49.433594 53.683594v43.214844c0 5.523438 4.476563 10 10 10h87.769531c5.523438 0 10-4.476562 10-10v-43.210938c-.03125-28.019531-21.511718-51.347656-49.433594-53.6875zm-28.632812-43.957031c0-13.355469 10.828125-24.179687 24.183594-24.179687 13.355468 0 24.179687 10.828125 24.179687 24.183594 0 13.351562-10.828125 24.179687-24.183593 24.179687-13.347657-.015625-24.164063-10.832031-24.179688-24.179687zm58.066406 130.855469h-67.769531v-33.210938c0-18.710937 15.171875-33.882812 33.886719-33.882812s33.882812 15.171875 33.882812 33.882812zm0 0M333.015625 194.570312c22.082031-.023437 39.976563-17.917968 40-40v-114.570312c-.023437-22.082031-17.917969-39.9765625-40-40h-244.792969c-22.082031.0234375-39.976562 17.917969-40 40v114.570312c.023438 22.082032 17.917969 39.976563 40 40h124.425782l38.109374 53.761719c1.875 2.644531 4.917969 4.214844 8.15625 4.214844 3.242188 0 6.285157-1.570313 8.160157-4.214844l38.109375-53.761719zm-41.160156-15.78125l-32.9375 46.46875-32.941407-46.46875c-1.875-2.644531-4.914062-4.21875-8.15625-4.21875h-129.601562c-11.039062-.011718-19.988281-8.957031-20-20v-114.570312c.011719-11.039062 8.960938-19.988281 20-20h244.800781c11.039063.011719 19.988281 8.960938 20 20v114.570312c-.011719 11.042969-8.960937 19.988282-20 20h-33c-3.242187 0-6.285156 1.570313-8.164062 4.21875zm0 0" fill="#ffffff" class="color000 svgShape"></path></svg></g></svg>