<svg id="SvgjsSvg1001" width="288" height="288" xmlns="http://www.w3.org/2000/svg" version="1.1" xmlns:xlink="http://www.w3.org/1999/xlink" xmlns:svgjs="http://svgjs.com/svgjs"><defs id="SvgjsDefs1002"></defs><g id="SvgjsG1008" transform="matrix(1,0,0,1,0,0)"><svg xmlns="http://www.w3.org/2000/svg" enable-background="new 0 0 512 512" viewBox="0 0 512 512" width="288" height="288"><path d="M493.176,1.882H105.412c-10.328,0-18.729,8.326-18.823,18.654l-2.98,335.228H18.824C8.427,355.765,0,364.191,0,374.588
			v45.804c0,49.475,40.251,89.726,89.725,89.726v-37.647c-28.718,0-52.078-23.366-52.078-52.078v-26.98h294.902v26.98
			c0,49.475,40.251,89.726,89.726,89.726c49.474,0,89.725-40.251,89.725-89.726V20.706C512,10.309,503.573,1.882,493.176,1.882z
			 M474.353,420.392c0,28.712-23.366,52.078-52.078,52.078s-52.078-23.366-52.078-52.078v-45.804
			c0-10.397-8.427-18.824-18.824-18.824H121.261l2.805-316.235h350.287V420.392z" fill="#ffffff" class="color000 svgShape"></path><rect width="331.294" height="37.647" x="86.588" y="472.471" fill="#ffffff" class="color000 svgShape"></rect><path d="M293.02 94.118h-97.255c-10.397 0-18.824 8.427-18.824 18.823s8.427 18.824 18.824 18.824h97.255c10.397 0 18.824-8.427 18.824-18.824S303.417 94.118 293.02 94.118zM393.412 175.686H195.765c-10.397 0-18.824 8.427-18.824 18.824 0 10.397 8.427 18.823 18.824 18.823h197.647c10.397 0 18.823-8.427 18.823-18.823S403.809 175.686 393.412 175.686zM393.412 257.255H195.765c-10.397 0-18.824 8.427-18.824 18.824s8.427 18.824 18.824 18.824h197.647c10.397 0 18.823-8.427 18.823-18.824S403.809 257.255 393.412 257.255z" fill="#ffffff" class="color000 svgShape"></path></svg></g></svg>