<?xml version="1.0" encoding="iso-8859-1"?>
<!-- Generator: Adobe Illustrator 19.0.0, SVG Export Plug-In . SVG Version: 6.00 Build 0)  -->
<svg version="1.1" id="Capa_1" xmlns="http://www.w3.org/2000/svg" xmlns:xlink="http://www.w3.org/1999/xlink" x="0px" y="0px"
	 viewBox="0 0 512 512" style="enable-background:new 0 0 512 512;" xml:space="preserve">
<g>
	<g>
		<path d="M173.382,169.893v-34.909H17.455C7.814,134.984,0,142.798,0,152.439v175.709c0,9.641,7.814,17.455,17.455,17.455h155.927
			v-34.909H34.909v-140.8H173.382z"/>
	</g>
</g>
<g>
	<g>
		<path d="M445.888,21.442c-4.945-3.217-11.2-3.712-16.588-1.332L166.319,136.474c-6.319,2.799-10.391,9.053-10.391,15.965v175.709
			c0,6.912,4.073,13.167,10.391,15.959L429.3,460.471c2.257,1.001,4.666,1.495,7.063,1.495c3.328,0,6.65-0.954,9.524-2.828
			c4.945-3.217,7.93-8.721,7.93-14.627V36.075C453.818,30.17,450.833,24.666,445.888,21.442z M418.909,417.701L190.836,316.785
			V163.802L418.909,62.885V417.701z"/>
	</g>
</g>
<g>
	<g>
		<path d="M130.601,386.173l51.863-44.817l-22.825-26.409l-59.927,51.776c-4.945,4.276-7.092,10.961-5.551,17.321l18.048,74.432
			H76.265L34.118,322.97L0.785,333.332l45.964,147.776c2.269,7.302,9.03,12.271,16.669,12.271H134.4
			c5.353,0,10.409-2.449,13.713-6.656c3.311-4.207,4.509-9.699,3.247-14.906L130.601,386.173z"/>
	</g>
</g>
<g>
	<g>
		<rect x="336.873" y="72.73" width="34.909" height="335.709"/>
	</g>
</g>
<g>
	<g>
		<path d="M459.636,164.075h-23.273v34.909h23.273c9.623,0,17.455,7.831,17.455,17.455v41.891c0,9.623-7.831,17.455-17.455,17.455
			h-23.273v34.909h23.273c28.876,0,52.364-23.488,52.364-52.364v-41.891C512,187.569,488.512,164.075,459.636,164.075z"/>
	</g>
</g>
<g>
</g>
<g>
</g>
<g>
</g>
<g>
</g>
<g>
</g>
<g>
</g>
<g>
</g>
<g>
</g>
<g>
</g>
<g>
</g>
<g>
</g>
<g>
</g>
<g>
</g>
<g>
</g>
<g>
</g>
</svg>
