<?xml version="1.0" encoding="iso-8859-1"?>
<!-- Generator: Adobe Illustrator 16.0.0, SVG Export Plug-In . SVG Version: 6.00 Build 0)  -->
<!DOCTYPE svg PUBLIC "-//W3C//DTD SVG 1.1//EN" "http://www.w3.org/Graphics/SVG/1.1/DTD/svg11.dtd">
<svg version="1.1" id="Capa_1" xmlns="http://www.w3.org/2000/svg" xmlns:xlink="http://www.w3.org/1999/xlink" x="0px" y="0px"
	 width="72.41px" height="72.41px" viewBox="0 0 72.41 72.41" style="enable-background:new 0 0 72.41 72.41;" xml:space="preserve"
	>
<g>
	<path d="M0,11.679v49.052h72.41V11.679H0z M70.074,58.396H2.336v-44.38h67.738V58.396z M18.488,27.972h-3.564v-0.273
		c0.549-0.009,0.937-0.119,1.153-0.341c0.22-0.223,0.33-0.602,0.33-1.135v-7.099l-0.214-0.268c-0.216-0.265-0.405-0.44-0.566-0.526
		c-0.161-0.086-0.397-0.136-0.703-0.145v-0.274h3.564l4.966,6.241v-4.329c0-0.606-0.087-1.016-0.259-1.224
		c-0.238-0.288-0.633-0.427-1.196-0.415v-0.274h3.326v0.274c-0.426,0.051-0.711,0.125-0.856,0.212
		c-0.145,0.087-0.26,0.229-0.341,0.425c-0.082,0.196-0.122,0.533-0.122,1.004v8.382h-0.252l-6.805-8.382v6.396
		c0,0.58,0.133,0.972,0.397,1.172C17.61,27.6,17.913,27.7,18.254,27.7h0.241v0.274h-0.007V27.972z M34.224,27.972h-8.701v-0.273
		h0.339c0.287,0,0.528-0.051,0.706-0.156c0.131-0.067,0.227-0.187,0.297-0.353c0.051-0.122,0.08-0.435,0.08-0.934v-6.62
		c0-0.454-0.015-0.734-0.038-0.837c-0.049-0.17-0.145-0.308-0.273-0.401c-0.192-0.14-0.444-0.208-0.771-0.208h-0.339v-0.273h8.424
		v2.973h-0.283c-0.145-0.729-0.343-1.247-0.605-1.565c-0.261-0.32-0.631-0.548-1.104-0.698c-0.278-0.091-0.799-0.138-1.56-0.138
		h-1.033v4.097h0.201c0.639,0,1.101-0.201,1.388-0.6c0.287-0.402,0.47-0.994,0.546-1.778h0.283v5.273h-0.283
		c-0.056-0.575-0.182-1.045-0.371-1.411c-0.191-0.365-0.414-0.615-0.664-0.739c-0.25-0.124-0.622-0.186-1.101-0.186v2.835
		c0,0.553,0.024,0.892,0.068,1.021c0.049,0.123,0.138,0.225,0.261,0.301c0.131,0.082,0.341,0.12,0.628,0.12h0.598
		c0.94,0,1.696-0.215,2.264-0.65c0.565-0.437,0.974-1.102,1.217-1.993h0.272L34.224,27.972z M35.712,18.484
		c-0.133-0.173-0.354-0.274-0.675-0.304v-0.273H39.4v0.273c-0.351,0.009-0.583,0.063-0.701,0.159s-0.174,0.214-0.174,0.357
		c0,0.187,0.12,0.586,0.361,1.194l1.977,4.886l1.58-3.814l-0.415-1.072c-0.23-0.58-0.403-0.972-0.526-1.168
		c-0.128-0.196-0.27-0.336-0.432-0.421s-0.396-0.125-0.714-0.125v-0.274h4.88v0.274c-0.341,0.004-0.587,0.032-0.732,0.079
		c-0.105,0.038-0.183,0.091-0.244,0.173c-0.062,0.081-0.089,0.175-0.089,0.277c0,0.115,0.111,0.463,0.337,1.047l1.83,4.765
		l1.64-4.317c0.171-0.441,0.278-0.745,0.319-0.914c0.044-0.159,0.06-0.312,0.06-0.451c0-0.201-0.071-0.359-0.208-0.479
		c-0.141-0.114-0.405-0.177-0.798-0.187v-0.272h2.614v0.272c-0.192,0.017-0.345,0.064-0.475,0.154
		c-0.133,0.086-0.242,0.225-0.34,0.407c-0.034,0.058-0.185,0.441-0.468,1.148l-3.155,8.309h-0.289l-2.493-6.484l-2.744,6.484h-0.276
		l-3.31-8.217C36.081,19.157,35.851,18.654,35.712,18.484z M50.708,28.199h-0.273v-3.801h0.273c0.217,1.067,0.634,1.885,1.257,2.446
		c0.623,0.56,1.291,0.838,2.005,0.838c0.553,0,0.999-0.147,1.323-0.448s0.493-0.652,0.493-1.054c0-0.241-0.06-0.468-0.189-0.691
		c-0.126-0.225-0.317-0.435-0.573-0.633c-0.255-0.201-0.714-0.461-1.363-0.78c-0.92-0.448-1.576-0.832-1.978-1.149
		c-0.399-0.321-0.708-0.671-0.924-1.063c-0.215-0.393-0.324-0.822-0.324-1.291c0-0.804,0.294-1.486,0.885-2.049
		c0.589-0.565,1.328-0.844,2.225-0.844c0.33,0,0.643,0.04,0.948,0.12c0.235,0.058,0.516,0.168,0.847,0.332
		c0.338,0.159,0.57,0.243,0.705,0.243c0.13,0,0.23-0.04,0.306-0.122c0.07-0.076,0.144-0.266,0.207-0.57h0.224l0.08,3.356h-0.304
		c-0.146-0.836-0.497-1.516-1.059-2.029c-0.557-0.512-1.168-0.765-1.815-0.765c-0.507,0-0.91,0.136-1.204,0.402
		c-0.295,0.269-0.438,0.579-0.438,0.929c0,0.225,0.048,0.426,0.155,0.596c0.144,0.236,0.372,0.46,0.688,0.692
		c0.235,0.161,0.771,0.45,1.608,0.865c1.178,0.58,1.974,1.125,2.384,1.64c0.401,0.515,0.606,1.103,0.606,1.766
		c0,0.842-0.328,1.568-0.985,2.175c-0.649,0.605-1.487,0.909-2.49,0.909c-0.319,0-0.621-0.033-0.903-0.096
		c-0.278-0.063-0.632-0.187-1.057-0.365c-0.239-0.098-0.436-0.144-0.586-0.144c-0.133,0-0.265,0.048-0.41,0.144
		C50.913,27.845,50.797,27.992,50.708,28.199z M65.793,33.089H6.617v-2.336h59.176V33.089z M18.88,37.177h15.881v2.336H18.88V37.177
		z M18.88,43.601h15.881v2.336H18.88V43.601z M6.7,50.024h28.062v2.335H6.7V50.024z M37.649,37.177h28.062v2.336H37.649V37.177z
		 M37.649,43.601h28.062v2.336H37.649V43.601z M37.649,50.024h28.062v2.335H37.649V50.024z M12.401,46.652h-0.187v0.261h4.611
		v-0.261c-0.29-0.022-0.519-0.107-0.673-0.248c-0.212-0.191-0.484-0.657-0.813-1.403l-3.435-7.814h-0.136L8.36,44.791
		c-0.327,0.726-0.597,1.205-0.82,1.438c-0.22,0.232-0.502,0.372-0.84,0.424v0.261h3.167v-0.261
		c-0.497-0.036-0.809-0.091-0.932-0.169c-0.218-0.123-0.328-0.323-0.328-0.588c0-0.201,0.067-0.454,0.201-0.767l0.397-0.924h3.366
		l0.508,1.188c0.136,0.311,0.201,0.488,0.21,0.531c0.031,0.089,0.046,0.176,0.046,0.258c0,0.142-0.049,0.244-0.154,0.324
		C13.032,46.601,12.771,46.652,12.401,46.652z M9.455,43.681l1.462-3.282l1.421,3.282H9.455z"/>
</g>
<g>
</g>
<g>
</g>
<g>
</g>
<g>
</g>
<g>
</g>
<g>
</g>
<g>
</g>
<g>
</g>
<g>
</g>
<g>
</g>
<g>
</g>
<g>
</g>
<g>
</g>
<g>
</g>
<g>
</g>
</svg>
